<svg xmlns="http://www.w3.org/2000/svg" xmlns:xlink="http://www.w3.org/1999/xlink" width="44" zoomAndPan="magnify" viewBox="0 0 33 32.999998" height="44" preserveAspectRatio="xMidYMid meet" version="1.0"><path fill="#ffffff" d="M 16.5 10.5 C 13.199219 10.5 10.5 13.195312 10.5 16.511719 C 10.5 19.511719 12.695312 22.003906 15.5625 22.453125 L 15.5625 18.253906 L 14.039062 18.253906 L 14.039062 16.511719 L 15.5625 16.511719 L 15.5625 15.1875 C 15.5625 13.679688 16.457031 12.851562 17.832031 12.851562 C 18.484375 12.851562 19.171875 12.964844 19.171875 12.964844 L 19.171875 14.449219 L 18.414062 14.449219 C 17.671875 14.449219 17.4375 14.910156 17.4375 15.382812 L 17.4375 16.511719 L 19.105469 16.511719 L 18.835938 18.253906 L 17.4375 18.253906 L 17.4375 22.453125 C 18.851562 22.230469 20.136719 21.507812 21.066406 20.417969 C 21.996094 19.328125 22.503906 17.945312 22.5 16.511719 C 22.5 13.195312 19.800781 10.5 16.5 10.5 Z M 16.5 10.5 " fill-opacity="1" fill-rule="nonzero"/></svg>