<svg xmlns="http://www.w3.org/2000/svg" xmlns:xlink="http://www.w3.org/1999/xlink" width="44" zoomAndPan="magnify" viewBox="0 0 33 32.999998" height="44" preserveAspectRatio="xMidYMid meet" version="1.0"><path fill="#ffffff" d="M 13.980469 10.5 L 19.019531 10.5 C 20.941406 10.5 22.5 12.058594 22.5 13.980469 L 22.5 19.019531 C 22.5 19.941406 22.132812 20.828125 21.480469 21.480469 C 20.828125 22.132812 19.941406 22.5 19.019531 22.5 L 13.980469 22.5 C 12.058594 22.5 10.5 20.941406 10.5 19.019531 L 10.5 13.980469 C 10.5 13.058594 10.867188 12.171875 11.519531 11.519531 C 12.171875 10.867188 13.058594 10.5 13.980469 10.5 Z M 13.859375 11.699219 C 13.289062 11.699219 12.738281 11.925781 12.332031 12.332031 C 11.925781 12.738281 11.699219 13.289062 11.699219 13.859375 L 11.699219 19.140625 C 11.699219 20.335938 12.664062 21.300781 13.859375 21.300781 L 19.140625 21.300781 C 19.710938 21.300781 20.261719 21.074219 20.667969 20.667969 C 21.074219 20.261719 21.300781 19.710938 21.300781 19.140625 L 21.300781 13.859375 C 21.300781 12.664062 20.335938 11.699219 19.140625 11.699219 Z M 19.648438 12.601562 C 19.847656 12.601562 20.039062 12.679688 20.179688 12.820312 C 20.320312 12.960938 20.398438 13.152344 20.398438 13.351562 C 20.398438 13.550781 20.320312 13.738281 20.179688 13.878906 C 20.039062 14.019531 19.847656 14.101562 19.648438 14.101562 C 19.449219 14.101562 19.261719 14.019531 19.121094 13.878906 C 18.980469 13.738281 18.898438 13.550781 18.898438 13.351562 C 18.898438 13.152344 18.980469 12.960938 19.121094 12.820312 C 19.261719 12.679688 19.449219 12.601562 19.648438 12.601562 Z M 16.5 13.5 C 17.296875 13.5 18.058594 13.816406 18.621094 14.378906 C 19.183594 14.941406 19.5 15.703125 19.5 16.5 C 19.5 17.296875 19.183594 18.058594 18.621094 18.621094 C 18.058594 19.183594 17.296875 19.5 16.5 19.5 C 15.703125 19.5 14.941406 19.183594 14.378906 18.621094 C 13.816406 18.058594 13.5 17.296875 13.5 16.5 C 13.5 15.703125 13.816406 14.941406 14.378906 14.378906 C 14.941406 13.816406 15.703125 13.5 16.5 13.5 Z M 16.5 14.699219 C 16.023438 14.699219 15.566406 14.890625 15.226562 15.226562 C 14.890625 15.566406 14.699219 16.023438 14.699219 16.5 C 14.699219 16.976562 14.890625 17.433594 15.226562 17.773438 C 15.566406 18.109375 16.023438 18.300781 16.5 18.300781 C 16.976562 18.300781 17.433594 18.109375 17.773438 17.773438 C 18.109375 17.433594 18.300781 16.976562 18.300781 16.5 C 18.300781 16.023438 18.109375 15.566406 17.773438 15.226562 C 17.433594 14.890625 16.976562 14.699219 16.5 14.699219 Z M 16.5 14.699219 " fill-opacity="1" fill-rule="nonzero"/></svg>