<svg xmlns="http://www.w3.org/2000/svg" xmlns:xlink="http://www.w3.org/1999/xlink" width="44" zoomAndPan="magnify" viewBox="0 0 33 32.999998" height="44" preserveAspectRatio="xMidYMid meet" version="1.0"><defs><clipPath id="7b81d3b633"><path d="M 10.5 10.5 L 22.5 10.5 L 22.5 22.5 L 10.5 22.5 Z M 10.5 10.5 " clip-rule="nonzero"/></clipPath></defs><g clip-path="url(#7b81d3b633)"><path fill="#ffffff" d="M 21.167969 10.5 C 21.519531 10.5 21.859375 10.640625 22.109375 10.890625 C 22.359375 11.140625 22.5 11.480469 22.5 11.832031 L 22.5 21.167969 C 22.5 21.519531 22.359375 21.859375 22.109375 22.109375 C 21.859375 22.359375 21.519531 22.5 21.167969 22.5 L 11.832031 22.5 C 11.480469 22.5 11.140625 22.359375 10.890625 22.109375 C 10.640625 21.859375 10.5 21.519531 10.5 21.167969 L 10.5 11.832031 C 10.5 11.480469 10.640625 11.140625 10.890625 10.890625 C 11.140625 10.640625 11.480469 10.5 11.832031 10.5 Z M 20.832031 20.832031 L 20.832031 17.300781 C 20.832031 16.722656 20.605469 16.171875 20.195312 15.761719 C 19.789062 15.355469 19.238281 15.125 18.660156 15.125 C 18.09375 15.125 17.433594 15.472656 17.113281 15.992188 L 17.113281 15.253906 L 15.253906 15.253906 L 15.253906 20.832031 L 17.113281 20.832031 L 17.113281 17.546875 C 17.113281 17.035156 17.527344 16.613281 18.039062 16.613281 C 18.289062 16.613281 18.523438 16.710938 18.699219 16.886719 C 18.875 17.0625 18.972656 17.300781 18.972656 17.546875 L 18.972656 20.832031 Z M 13.085938 14.207031 C 13.382812 14.207031 13.667969 14.089844 13.878906 13.878906 C 14.089844 13.667969 14.207031 13.382812 14.207031 13.085938 C 14.207031 12.464844 13.707031 11.960938 13.085938 11.960938 C 12.789062 11.960938 12.5 12.078125 12.289062 12.289062 C 12.078125 12.5 11.960938 12.789062 11.960938 13.085938 C 11.960938 13.707031 12.464844 14.207031 13.085938 14.207031 Z M 14.011719 20.832031 L 14.011719 15.253906 L 12.167969 15.253906 L 12.167969 20.832031 Z M 14.011719 20.832031 " fill-opacity="1" fill-rule="nonzero"/></g></svg>