<svg width="171" height="19" viewBox="0 0 171 19" fill="none" xmlns="http://www.w3.org/2000/svg">
<path d="M4.55469 0.9375L7.61328 13.4648H7.68359L10.7773 0.9375H15.125V18H11.8086V13.043L12.0898 6.41016L12.0195 6.39844L8.76172 18H6.54688L3.32422 6.49219L3.25391 6.50391L3.54688 13.043V18H0.230469V0.9375H4.55469ZM21.1484 18H17.832V0.9375H21.1484V18ZM32.9844 10.5117H27.2539V15.3398H33.9922V18H23.9141V0.9375H33.9688V3.60938H27.2539V7.85156H32.9844V10.5117ZM43.3086 13.5469C43.3086 12.8828 43.1367 12.3594 42.793 11.9766C42.4492 11.5859 41.8438 11.2031 40.9766 10.8281C39.2031 10.2109 37.8711 9.51172 36.9805 8.73047C36.0977 7.94141 35.6562 6.83984 35.6562 5.42578C35.6562 4.02734 36.1719 2.89063 37.2031 2.01562C38.2344 1.13281 39.5508 0.691406 41.1523 0.691406C42.7773 0.691406 44.0977 1.18359 45.1133 2.16797C46.1289 3.14453 46.6211 4.37891 46.5898 5.87109L46.5664 5.94141H43.332C43.332 5.16016 43.1367 4.52734 42.7461 4.04297C42.3555 3.55859 41.8047 3.31641 41.0938 3.31641C40.4297 3.31641 39.9102 3.51953 39.5352 3.92578C39.168 4.32422 38.9844 4.82812 38.9844 5.4375C38.9844 6 39.1914 6.46484 39.6055 6.83203C40.0195 7.19141 40.7383 7.59375 41.7617 8.03906C43.3789 8.58594 44.5938 9.28125 45.4062 10.125C46.2266 10.9609 46.6367 12.0938 46.6367 13.5234C46.6367 15 46.1445 16.1562 45.1602 16.9922C44.1758 17.8281 42.8672 18.2461 41.2344 18.2461C39.6094 18.2461 38.1992 17.7734 37.0039 16.8281C35.8164 15.875 35.2422 14.5117 35.2812 12.7383L35.3047 12.668H38.5508C38.5508 13.7227 38.7734 14.4805 39.2188 14.9414C39.6641 15.4023 40.3359 15.6328 41.2344 15.6328C41.9375 15.6328 42.457 15.4453 42.793 15.0703C43.1367 14.6953 43.3086 14.1875 43.3086 13.5469ZM51.9688 15.3398H58.5195V18H48.2188V16.3242L54.6172 3.59766H48.1484V0.9375H58.4141V2.55469L51.9688 15.3398ZM65.2227 10.9102H63.7695V18H60.4297V0.9375H63.7695V7.875H64.8477L68.1758 0.9375H72.2656L67.6133 8.73047L72.6523 18H68.5977L65.2227 10.9102ZM84.8867 11.8711C84.8867 13.8711 84.3438 15.4336 83.2578 16.5586C82.1719 17.6836 80.7266 18.2461 78.9219 18.2461C77.1172 18.2461 75.6758 17.6836 74.5977 16.5586C73.5195 15.4336 72.9805 13.8711 72.9805 11.8711V7.08984C72.9805 5.09766 73.5195 3.53516 74.5977 2.40234C75.6758 1.26172 77.1133 0.691406 78.9102 0.691406C80.707 0.691406 82.1523 1.26172 83.2461 2.40234C84.3398 3.53516 84.8867 5.09766 84.8867 7.08984V11.8711ZM81.5703 7.06641C81.5703 5.84766 81.3438 4.92969 80.8906 4.3125C80.4375 3.6875 79.7773 3.375 78.9102 3.375C78.0352 3.375 77.3789 3.68359 76.9414 4.30078C76.5039 4.91797 76.2852 5.83984 76.2852 7.06641V11.8711C76.2852 13.1055 76.5078 14.0312 76.9531 14.6484C77.3984 15.2656 78.0547 15.5742 78.9219 15.5742C79.7812 15.5742 80.4375 15.2656 80.8906 14.6484C81.3438 14.0312 81.5703 13.1055 81.5703 11.8711V7.06641ZM94.6953 0.9375L99.4414 15.8789H99.5117L104.27 0.9375H106.086V18H104.691V10.5117L104.832 3.53906L104.762 3.52734L99.9453 18H99.0078L94.2031 3.55078L94.1328 3.5625L94.2734 10.5117V18H92.8906V0.9375H94.6953ZM119.902 11.8711C119.902 13.9414 119.418 15.5234 118.449 16.6172C117.488 17.7031 116.168 18.2461 114.488 18.2461C112.84 18.2461 111.543 17.7031 110.598 16.6172C109.66 15.5234 109.191 13.9414 109.191 11.8711V7.08984C109.191 5.01953 109.66 3.4375 110.598 2.34375C111.535 1.24219 112.828 0.691406 114.477 0.691406C116.156 0.691406 117.48 1.24219 118.449 2.34375C119.418 3.44531 119.902 5.02734 119.902 7.08984V11.8711ZM118.508 7.05469C118.508 5.36719 118.16 4.09766 117.465 3.24609C116.77 2.39453 115.773 1.96875 114.477 1.96875C113.219 1.96875 112.254 2.39453 111.582 3.24609C110.91 4.09766 110.574 5.36719 110.574 7.05469V11.8711C110.574 13.582 110.91 14.8633 111.582 15.7148C112.254 16.5664 113.223 16.9922 114.488 16.9922C115.785 16.9922 116.777 16.5664 117.465 15.7148C118.16 14.8633 118.508 13.582 118.508 11.8711V7.05469ZM132.242 2.17969H127.473V18H126.066V2.17969H121.309V0.9375H132.242V2.17969ZM144.371 11.8711C144.371 13.9414 143.887 15.5234 142.918 16.6172C141.957 17.7031 140.637 18.2461 138.957 18.2461C137.309 18.2461 136.012 17.7031 135.066 16.6172C134.129 15.5234 133.66 13.9414 133.66 11.8711V7.08984C133.66 5.01953 134.129 3.4375 135.066 2.34375C136.004 1.24219 137.297 0.691406 138.945 0.691406C140.625 0.691406 141.949 1.24219 142.918 2.34375C143.887 3.44531 144.371 5.02734 144.371 7.08984V11.8711ZM142.977 7.05469C142.977 5.36719 142.629 4.09766 141.934 3.24609C141.238 2.39453 140.242 1.96875 138.945 1.96875C137.688 1.96875 136.723 2.39453 136.051 3.24609C135.379 4.09766 135.043 5.36719 135.043 7.05469V11.8711C135.043 13.582 135.379 14.8633 136.051 15.7148C136.723 16.5664 137.691 16.9922 138.957 16.9922C140.254 16.9922 141.246 16.5664 141.934 15.7148C142.629 14.8633 142.977 13.582 142.977 11.8711V7.05469ZM148.906 10.3008V18H147.5V0.949219H152.398C153.93 0.949219 155.102 1.35156 155.914 2.15625C156.727 2.96094 157.133 4.13281 157.133 5.67188C157.133 6.57812 156.918 7.38672 156.488 8.09766C156.059 8.80078 155.449 9.32031 154.66 9.65625C155.527 9.92188 156.148 10.3984 156.523 11.0859C156.906 11.7734 157.098 12.6289 157.098 13.6523V15.2578C157.098 15.7891 157.148 16.2656 157.25 16.6875C157.352 17.1094 157.523 17.4531 157.766 17.7188V18H156.324C156.082 17.7188 155.914 17.3281 155.82 16.8281C155.734 16.3281 155.691 15.7969 155.691 15.2344V13.6758C155.691 12.6445 155.43 11.8242 154.906 11.2148C154.383 10.6055 153.664 10.3008 152.75 10.3008H148.906ZM148.906 9.08203H152.234C153.438 9.08203 154.316 8.77734 154.871 8.16797C155.434 7.55078 155.715 6.71484 155.715 5.66016C155.715 4.54297 155.441 3.68359 154.895 3.08203C154.348 2.48047 153.516 2.17969 152.398 2.17969H148.906V9.08203ZM168.805 13.8164C168.805 12.8867 168.531 12.1328 167.984 11.5547C167.445 10.9688 166.492 10.4531 165.125 10.0078C163.57 9.53125 162.391 8.91797 161.586 8.16797C160.789 7.41016 160.391 6.39844 160.391 5.13281C160.391 3.82813 160.836 2.76172 161.727 1.93359C162.625 1.10547 163.781 0.691406 165.195 0.691406C166.68 0.691406 167.871 1.17969 168.77 2.15625C169.676 3.13281 170.117 4.32422 170.094 5.73047L170.059 5.80078H168.734C168.734 4.66797 168.418 3.74219 167.785 3.02344C167.16 2.29688 166.297 1.93359 165.195 1.93359C164.125 1.93359 163.293 2.23438 162.699 2.83594C162.105 3.4375 161.809 4.19141 161.809 5.09766C161.809 5.94141 162.094 6.65234 162.664 7.23047C163.242 7.80078 164.219 8.30078 165.594 8.73047C167.109 9.19922 168.258 9.83594 169.039 10.6406C169.828 11.4375 170.223 12.4883 170.223 13.793C170.223 15.1602 169.758 16.2461 168.828 17.0508C167.906 17.8477 166.719 18.2461 165.266 18.2461C163.836 18.2461 162.59 17.8164 161.527 16.957C160.473 16.0977 159.965 14.8516 160.004 13.2188L160.027 13.1484H161.34C161.34 14.4766 161.723 15.457 162.488 16.0898C163.262 16.7148 164.188 17.0273 165.266 17.0273C166.328 17.0273 167.184 16.7344 167.832 16.1484C168.48 15.5625 168.805 14.7852 168.805 13.8164Z" fill="white"/>
</svg>
