<svg width="1201" height="125" viewBox="0 0 1201 125" fill="none" xmlns="http://www.w3.org/2000/svg">
<path d="M30.7558 2.42862L52.3468 90.861H52.8432L74.6824 2.42862H105.373V122.875H81.9622V87.8829L83.9476 41.0609L83.4512 40.9782L60.4538 122.875H44.8189L22.0697 41.64L21.5734 41.7227L23.6415 87.8829V122.875H0.230469V2.42862H30.7558Z" fill="black"/>
<path d="M147.894 122.875H124.483V2.42862H147.894V122.875Z" fill="black"/>
<path d="M231.445 70.0144H190.993V104.097H238.559V122.875H167.416V2.42862H238.394V21.2898H190.993V51.236H231.445V70.0144Z" fill="black"/>
<path d="M304.325 91.4401C304.325 86.7523 303.112 83.0573 300.685 80.355C298.259 77.5975 293.985 74.8952 287.863 72.248C275.344 67.8912 265.941 62.9553 259.654 57.4403C253.422 51.8702 250.306 44.0941 250.306 34.1121C250.306 24.2403 253.946 16.216 261.226 10.0393C268.506 3.80736 277.798 0.691406 289.104 0.691406C300.575 0.691406 309.895 4.16583 317.065 11.1147C324.234 18.0084 327.709 26.722 327.488 37.2556L327.323 37.7519H304.491C304.491 32.237 303.112 27.7699 300.355 24.3506C297.597 20.9313 293.709 19.2217 288.69 19.2217C284.003 19.2217 280.335 20.6556 277.688 23.5233C275.096 26.336 273.8 29.8931 273.8 34.1948C273.8 38.1656 275.261 41.447 278.184 44.039C281.107 46.5759 286.181 49.4161 293.406 52.5596C304.822 56.4201 313.397 61.3284 319.133 67.2845C324.924 73.1855 327.819 81.1822 327.819 91.2746C327.819 101.698 324.345 109.86 317.396 115.761C310.447 121.662 301.209 124.613 289.683 124.613C278.212 124.613 268.257 121.276 259.82 114.603C251.437 107.875 247.383 98.251 247.659 85.7321L247.825 85.2357H270.739C270.739 92.6809 272.311 98.0304 275.455 101.284C278.598 104.538 283.341 106.165 289.683 106.165C294.647 106.165 298.314 104.841 300.685 102.194C303.112 99.5471 304.325 95.9623 304.325 91.4401Z" fill="black"/>
<path d="M365.459 104.097H411.702V122.875H338.987V111.046L384.154 21.2071H338.49V2.42862H410.957V13.8446L365.459 104.097Z" fill="black"/>
<path d="M459.02 72.8271H448.762V122.875H425.186V2.42862H448.762V51.4015H456.373L479.866 2.42862H508.737L475.896 57.4403L511.467 122.875H482.845L459.02 72.8271Z" fill="black"/>
<path d="M597.831 79.6105C597.831 93.7288 593.999 104.759 586.333 112.7C578.667 120.642 568.464 124.613 555.725 124.613C542.985 124.613 532.81 120.642 525.199 112.7C517.589 104.759 513.783 93.7288 513.783 79.6105V45.8589C513.783 31.7958 517.589 20.7659 525.199 12.7692C532.81 4.71733 542.958 0.691406 555.642 0.691406C568.326 0.691406 578.529 4.71733 586.25 12.7692C593.971 20.7659 597.831 31.7958 597.831 45.8589V79.6105ZM574.42 45.6935C574.42 37.0901 572.821 30.6101 569.622 26.2532C566.424 21.8413 561.764 19.6353 555.642 19.6353C549.465 19.6353 544.833 21.8137 541.744 26.1705C538.656 30.5273 537.112 37.035 537.112 45.6935V79.6105C537.112 88.3241 538.684 94.8593 541.827 99.2162C544.971 103.573 549.603 105.751 555.725 105.751C561.791 105.751 566.424 103.573 569.622 99.2162C572.821 94.8593 574.42 88.3241 574.42 79.6105V45.6935Z" fill="black"/>
<path d="M667.072 2.42862L700.575 107.902H701.071L734.658 2.42862H747.48V122.875H737.636V70.0144L738.628 20.7934L738.132 20.7107L704.132 122.875H697.514L663.597 20.8762L663.101 20.9589L664.094 70.0144V122.875H654.332V2.42862H667.072Z" fill="black"/>
<path d="M845.012 79.6105C845.012 94.2251 841.593 105.393 834.754 113.114C827.971 120.78 818.65 124.613 806.793 124.613C795.157 124.613 786.002 120.78 779.329 113.114C772.711 105.393 769.402 94.2251 769.402 79.6105V45.8589C769.402 31.2443 772.711 20.0765 779.329 12.3555C785.947 4.57945 795.074 0.691406 806.711 0.691406C818.568 0.691406 827.916 4.57945 834.754 12.3555C841.593 20.1316 845.012 31.2994 845.012 45.8589V79.6105ZM835.168 45.6107C835.168 33.6984 832.714 24.7366 827.805 18.7253C822.897 12.714 815.865 9.70836 806.711 9.70836C797.831 9.70836 791.02 12.714 786.278 18.7253C781.535 24.7366 779.163 33.6984 779.163 45.6107V79.6105C779.163 91.6882 781.535 100.733 786.278 106.744C791.02 112.755 797.859 115.761 806.793 115.761C815.948 115.761 822.952 112.755 827.805 106.744C832.714 100.733 835.168 91.6882 835.168 79.6105V45.6107Z" fill="black"/>
<path d="M932.121 11.1974H898.452V122.875H888.525V11.1974H854.939V2.42862H932.121V11.1974Z" fill="black"/>
<path d="M1017.74 79.6105C1017.74 94.2251 1014.32 105.393 1007.48 113.114C1000.7 120.78 991.379 124.613 979.522 124.613C967.885 124.613 958.73 120.78 952.057 113.114C945.439 105.393 942.13 94.2251 942.13 79.6105V45.8589C942.13 31.2443 945.439 20.0765 952.057 12.3555C958.675 4.57945 967.802 0.691406 979.439 0.691406C991.296 0.691406 1000.64 4.57945 1007.48 12.3555C1014.32 20.1316 1017.74 31.2994 1017.74 45.8589V79.6105ZM1007.9 45.6107C1007.9 33.6984 1005.44 24.7366 1000.53 18.7253C995.625 12.714 988.594 9.70836 979.439 9.70836C970.56 9.70836 963.749 12.714 959.006 18.7253C954.263 24.7366 951.892 33.6984 951.892 45.6107V79.6105C951.892 91.6882 954.263 100.733 959.006 106.744C963.749 112.755 970.588 115.761 979.522 115.761C988.677 115.761 995.681 112.755 1000.53 106.744C1005.44 100.733 1007.9 91.6882 1007.9 79.6105V45.6107Z" fill="black"/>
<path d="M1049.75 68.5254V122.875H1039.83V2.51134H1074.41C1085.22 2.51134 1093.49 5.35155 1099.22 11.032C1104.96 16.7124 1107.83 24.9848 1107.83 35.8493C1107.83 42.2466 1106.31 47.9546 1103.28 52.9732C1100.24 57.9367 1095.94 61.6041 1090.37 63.9756C1096.49 65.8506 1100.88 69.2148 1103.53 74.0679C1106.23 78.9211 1107.58 84.96 1107.58 92.1846V103.518C1107.58 107.268 1107.94 110.632 1108.65 113.61C1109.37 116.588 1110.58 119.015 1112.29 120.89V122.875H1102.12C1100.41 120.89 1099.22 118.132 1098.56 114.603C1097.96 111.073 1097.65 107.323 1097.65 103.352V92.35C1097.65 85.0703 1095.8 79.2796 1092.11 74.9779C1088.41 70.6762 1083.34 68.5254 1076.89 68.5254H1049.75ZM1049.75 59.9221H1073.25C1081.74 59.9221 1087.95 57.7712 1091.86 53.4696C1095.83 49.1127 1097.82 43.2117 1097.82 35.7665C1097.82 27.8802 1095.89 21.8137 1092.03 17.5672C1088.17 13.3207 1082.29 11.1974 1074.41 11.1974H1049.75V59.9221Z" fill="black"/>
<path d="M1190.22 93.3427C1190.22 86.7799 1188.29 81.458 1184.43 77.3769C1180.62 73.2407 1173.9 69.6008 1164.25 66.4573C1153.27 63.0932 1144.94 58.7639 1139.26 53.4696C1133.64 48.1201 1130.82 40.9782 1130.82 32.0439C1130.82 22.834 1133.97 15.306 1140.26 9.46019C1146.6 3.61433 1154.76 0.691406 1164.74 0.691406C1175.22 0.691406 1183.63 4.13826 1189.97 11.032C1196.37 17.9257 1199.49 26.336 1199.32 36.2629L1199.07 36.7592H1189.72C1189.72 28.7625 1187.49 22.2273 1183.02 17.1536C1178.61 12.0246 1172.52 9.46019 1164.74 9.46019C1157.19 9.46019 1151.31 11.5835 1147.12 15.83C1142.93 20.0765 1140.83 25.3984 1140.83 31.7958C1140.83 37.7519 1142.85 42.7705 1146.87 46.8516C1150.95 50.8775 1157.85 54.4071 1167.55 57.4403C1178.25 60.7493 1186.36 65.244 1191.88 70.9244C1197.45 76.5497 1200.23 83.9673 1200.23 93.1773C1200.23 102.828 1196.95 110.494 1190.39 116.175C1183.88 121.8 1175.5 124.613 1165.24 124.613C1155.15 124.613 1146.35 121.579 1138.85 115.513C1131.4 109.446 1127.82 100.65 1128.09 89.1238L1128.26 88.6274H1137.53C1137.53 98.0029 1140.23 104.924 1145.63 109.391C1151.09 113.803 1157.63 116.009 1165.24 116.009C1172.74 116.009 1178.78 113.941 1183.35 109.805C1187.93 105.669 1190.22 100.181 1190.22 93.3427Z" fill="black"/>
</svg>
